# xmcd
#
# Track frame offsets: 
#        150
#        18926
#        41406
#        62997
#        83295
#        101531
#        118361
#        135662
#        152643
#        168664
#        192631
#        209949
#
# Disc length: 3083 seconds
#
# Revision: 0
# Processed by: cddbd v1.5.2PL0 Copyright (c) Steve Scherf et al.
# Submitted via: ExactAudioCopyFreeDBPlugin 1.0
#
DISCID=aa0c090c
DTITLE=Achim Reichel - Melancholie und Sturmflut
DYEAR=2009
DGENRE=Rock
TTITLE0=Made In Paradise
TTITLE1=Auf der Rolltreppe
TTITLE2=Kuddel Daddel Du
TTITLE3=Die Zauberin
TTITLE4=Aloha Heja He
TTITLE5=Sturmflut
TTITLE6=Robert der Roboter
TTITLE7=Melancholie
TTITLE8=Karawane ins Glück
TTITLE9=Das Lied von Susi und Johnny
TTITLE10=Mein Herz ist ein UFO
TTITLE11=Auf der Rolltreppe (Live '92)
EXTD=
EXTT0=
EXTT1=
EXTT2=
EXTT3=
EXTT4=
EXTT5=
EXTT6=
EXTT7=
EXTT8=
EXTT9=
EXTT10=
EXTT11=
PLAYORDER=
